<?xml version="1.0" encoding="UTF-8"?><svg id="Layer_2" xmlns="http://www.w3.org/2000/svg" xmlns:xlink="http://www.w3.org/1999/xlink" viewBox="0 0 539.586 54.576"><defs><clipPath id="clippath"><path d="M336.783,21.41c-1.668-5.385-7.735-9.177-15.548-9.177-10.845,0-16.913,5.916-16.913,15.017,0,9.177,5.688,15.017,17.14,15.017,8.418,0,12.893-3.717,15.169-8.343l11.832,5.537c-4.095,9.632-13.348,15.092-28.061,15.092-17.14,0-30.641-9.935-30.641-27.303S304.171.023,321.236.023c13.197,0,23.663,6.75,27.531,15.169l-11.984,6.219ZM414.824,52.885h-16.154l-4.095-9.784h-25.407l-4.247,9.784h-14.789L373.339,1.691h17.671l23.814,51.194ZM374.476,31.725h15.017l-7.433-17.899-7.585,17.899ZM459.191,16.025c-1.972-4.019-6.674-4.854-12.59-4.854-8.949,0-13.727,1.669-13.727,5.233,0,4.399,4.399,4.474,9.556,4.474,2.503,0,5.005-.075,9.783-.075,15.169,0,22.222,3.565,22.222,14.031,0,12.134-8.191,19.643-28.44,19.643-10.011,0-15.017-.834-18.733-2.579-6.447-3.261-9.556-6.75-10.239-14.41h15.244c.758,4.095,8.798,5.461,14.79,5.461,6.826,0,12.893-1.669,12.893-6.067,0-4.702-10.846-3.565-21.312-3.944-9.404-.379-20.477-2.048-20.477-16.306C418.16,6.545,425.668.023,446.525.023c17.519,0,24.421,5.157,26.469,15.472l-13.803.531ZM539.586,52.885h-13.803v-20.856h-30.261v20.856h-13.803V1.691h13.803v17.899h30.261V1.691h13.803v51.194Z" fill="none"/></clipPath><linearGradient id="linear-gradient" x1="414.824" y1="55.299" x2="414.824" y2=".023" gradientUnits="userSpaceOnUse"><stop offset="0" stop-color="#2d7232"/><stop offset="1" stop-color="#b3ffb3"/></linearGradient></defs><g id="Layer_1-2"><path d="M23.227,1.67L0,52.906h14.802l4.249-9.791h25.428l4.1,9.791h16.167L40.913,1.67h-17.686ZM24.365,31.728l7.591-17.914,7.439,17.914h-15.03Z" fill="#f3fff3"/><path d="M95.046,12.221c7.819,0,14.802,1.746,23.076,6.907l6.604-12.069c-4.023-2.961-16.244-7.06-29.679-7.06-17.002,0-31.425,9.944-31.425,27.249s13.511,27.327,30.667,27.327c16.016,0,25.504-2.733,29.755-5.237v-24.595h-24.29v11.311h10.854v3.568c-2.505,2.353-9.944,2.656-15.258,2.656-11.462,0-17.533-5.846-17.533-15.03,0-9.109,6.451-15.028,17.23-15.028Z" fill="#f3fff3"/><polygon points="145.158 32.563 180.149 32.563 180.149 20.721 145.158 20.721 145.158 13.435 185.236 13.435 185.236 1.67 131.267 1.67 131.267 52.906 186.299 52.906 186.299 39.85 145.158 39.85 145.158 32.563" fill="#f3fff3"/><path d="M252.963,52.906h-14.346l-31.578-33.399v33.399h-14.574V1.67h14.726l31.197,31.956V1.67h14.574v51.236Z" fill="#f3fff3"/><path d="M282.539,27.25c0-10.24,4.222-19.317,11.888-25.579h-34.251v12.828h20.039v38.407h13.813c-7.234-6.115-11.488-15.047-11.488-25.656Z" fill="#f3fff3"/><g clip-path="url(#clippath)"><rect x="280.42" y=".023" width="268.807" height="55.276" fill="url(#linear-gradient)"/></g></g></svg>